# xmcd
#
# Track frame offsets: 
#        150
#        10610
#        23076
#        34449
#        46098
#        56475
#        67263
#        79648
#        90668
#        100578
#        110777
#        121000
#        133376
#        144519
#        155613
#        165063
#        174659
#        185573
#        194584
#        204581
#        214449
#        224705
#        236280
#        248932
#        259894
#        271027
#        281209
#        291681
#        299250
#        307788
#        318322
#        326915
#
# Disc length: 4530 seconds
#
# Revision: 1
# Processed by: cddbd v1.5.2PL0 Copyright (c) Steve Scherf et al.
# Submitted via: ExactAudioCopyFreeDBPlugin 1.0
#
DISCID=ec11b020
DTITLE=Various Artist - The History of New Orleans Rhythm and Blues, 19
DTITLE=55-1962
DYEAR=2014
DGENRE=Rhythm and Blues
TTITLE0=Al Tousan - Whirlaway
TTITLE1=Frankie Ford - Sea Cruise
TTITLE2=Huey "Piano" Smith and His Clowns - Don't You Just Know It
TTITLE3=Lester Robinson and The Upsetters - My Girl Across Town
TTITLE4=Larry Williams - Bad Boy
TTITLE5=Art Neville - Arabian Love Call
TTITLE6=The Velvetiers - Feeling Alright on Saturday Night
TTITLE7=Eddie Bo - Oh, Oh
TTITLE8=TV Slim (Oscar Wills) - Flat Foot Sam
TTITLE9=Edgar Blanchard - Honeycomb
TTITLE10=Leonard Carbo - Pig Tails and Ribbons
TTITLE11=Lee Diamond and The Upsetters - Hattie Malatti
TTITLE12=Big Boy Myles - Loud Mouth Annie
TTITLE13=Huey "Piano" Smith and His Clowns - Don't You Know Yokomo
TTITLE14=Albert Scott - Can't Let You Go, I Love You So
TTITLE15=Tal Millers - Only Sixteen
TTITLE16=Lee Allen and His Band - Walkin' with Mr Lee
TTITLE17=Eddie Lang - She's Mine All Mine
TTITLE18=Larry Williams - Dizzy, Miss Lizzy
TTITLE19=Harry Lee - Harry Lee
TTITLE20=Leonard Carbo - I Don't Want to Lose Her
TTITLE21=Lee Dorsey - Lottie-Mo
TTITLE22=Huey "Piano" Smith and His Clowns - High Blood Pressure
TTITLE23=Frankie Ford - Roberta
TTITLE24=Bobby Marchan - You Can't Stop Her
TTITLE25=Earl King - Everybody's Carried Away
TTITLE26=Mercy Baby - Pleadin'
TTITLE27=Fats Domino - Whole Lotta Lovin'
TTITLE28=John Fred - Shirley
TTITLE29=Charles "Hungry" Williams - Darling
TTITLE30=Al Tousan - Java
TTITLE31=Ahmad Jamal Trio - Poinciana
EXTD=
EXTT0=
EXTT1=
EXTT2=
EXTT3=
EXTT4=
EXTT5=
EXTT6=
EXTT7=
EXTT8=
EXTT9=
EXTT10=
EXTT11=
EXTT12=
EXTT13=
EXTT14=
EXTT15=
EXTT16=
EXTT17=
EXTT18=
EXTT19=
EXTT20=
EXTT21=
EXTT22=
EXTT23=
EXTT24=
EXTT25=
EXTT26=
EXTT27=
EXTT28=
EXTT29=
EXTT30=
EXTT31=
PLAYORDER=
